<?xml version="1.0" encoding="UTF-8"?>
<svg viewBox="0 0 512 512" xmlns="http://www.w3.org/2000/svg">
  <!-- Background with shadow effect -->
  <defs>
    <linearGradient id="backgroundGradient" x1="0%" y1="0%" x2="100%" y2="100%">
      <stop offset="0%" stop-color="#1a73e8" />
      <stop offset="100%" stop-color="#0d47a1" />
    </linearGradient>
    <filter id="shadow" x="-20%" y="-20%" width="140%" height="140%">
      <feDropShadow dx="0" dy="8" stdDeviation="15" flood-color="#000" flood-opacity="0.3" />
    </filter>
  </defs>
  
  <!-- Main background -->
  <rect x="36" y="36" width="440" height="440" rx="60" ry="60" fill="url(#backgroundGradient)" filter="url(#shadow)" />
  
  <!-- Paper effect with subtle gradient -->
  <defs>
    <linearGradient id="paperGradient" x1="0%" y1="0%" x2="100%" y2="100%">
      <stop offset="0%" stop-color="#ffffff" />
      <stop offset="100%" stop-color="#f5f5f5" />
    </linearGradient>
  </defs>
  
  <!-- Stacked notes -->
  <rect x="96" y="86" width="320" height="340" rx="12" ry="12" fill="url(#paperGradient)" transform="rotate(-3 256 256)" filter="url(#shadow)" opacity="0.9" />
  <rect x="106" y="96" width="320" height="340" rx="12" ry="12" fill="url(#paperGradient)" transform="rotate(-1 256 256)" filter="url(#shadow)" opacity="0.95" />
  
  <!-- Main note -->
  <rect x="116" y="106" width="320" height="340" rx="12" ry="12" fill="url(#paperGradient)" filter="url(#shadow)" />
  
  <!-- Note lines -->
  <rect x="150" y="160" width="250" height="6" rx="3" ry="3" fill="#1a73e8" opacity="0.8" />
  <rect x="150" y="190" width="250" height="6" rx="3" ry="3" fill="#1a73e8" opacity="0.7" />
  <rect x="150" y="220" width="220" height="6" rx="3" ry="3" fill="#1a73e8" opacity="0.6" />
  <rect x="150" y="250" width="250" height="6" rx="3" ry="3" fill="#1a73e8" opacity="0.5" />
  <rect x="150" y="280" width="180" height="6" rx="3" ry="3" fill="#1a73e8" opacity="0.6" />
  <rect x="150" y="310" width="250" height="6" rx="3" ry="3" fill="#1a73e8" opacity="0.7" />
  <rect x="150" y="340" width="200" height="6" rx="3" ry="3" fill="#1a73e8" opacity="0.8" />
  
  <!-- Note title -->
  <rect x="150" y="130" width="120" height="10" rx="5" ry="5" fill="#1a73e8" />
</svg>